<mxfile host="Electron" modified="2024-08-25T15:28:04.790Z" agent="Mozilla/5.0 (Windows NT 10.0; Win64; x64) AppleWebKit/537.36 (KHTML, like Gecko) draw.io/22.1.16 Chrome/120.0.6099.109 Electron/28.1.0 Safari/537.36" etag="JbpsBXbsuERvv8Hs9Vyy" version="22.1.16" type="device">
  <diagram id="3228e29e-7158-1315-38df-8450db1d8a1d" name="Page-1">
    <mxGraphModel dx="1098" dy="940" grid="1" gridSize="10" guides="1" tooltips="1" connect="1" arrows="1" fold="1" page="1" pageScale="1" pageWidth="800" pageHeight="430" background="none" math="0" shadow="0">
      <root>
        <mxCell id="0" />
        <mxCell id="1" parent="0" />
        <mxCell id="sK3tTHBo8_BVSVDVNylo-21574" value="" style="rounded=1;whiteSpace=wrap;html=1;fillColor=#dae8fc;strokeColor=default;opacity=50;arcSize=9;" parent="1" vertex="1">
          <mxGeometry x="175" y="15" width="450" height="401" as="geometry" />
        </mxCell>
        <mxCell id="sK3tTHBo8_BVSVDVNylo-21573" value="" style="rounded=1;whiteSpace=wrap;html=1;fillColor=#e1d5e7;strokeColor=default;opacity=50;arcSize=9;" parent="1" vertex="1">
          <mxGeometry x="185" y="55" width="430" height="351" as="geometry" />
        </mxCell>
        <mxCell id="sK3tTHBo8_BVSVDVNylo-21565" value="" style="rounded=1;whiteSpace=wrap;html=1;fillColor=#f8cecc;strokeColor=default;opacity=50;arcSize=9;" parent="1" vertex="1">
          <mxGeometry x="195" y="85" width="360" height="311" as="geometry" />
        </mxCell>
        <mxCell id="sK3tTHBo8_BVSVDVNylo-21564" value="" style="rounded=1;whiteSpace=wrap;html=1;fillColor=#f5f5f5;strokeColor=default;opacity=50;arcSize=9;fontColor=#333333;" parent="1" vertex="1">
          <mxGeometry x="205" y="95" width="250" height="291" as="geometry" />
        </mxCell>
        <mxCell id="sK3tTHBo8_BVSVDVNylo-21561" value="" style="rounded=1;whiteSpace=wrap;html=1;fillColor=#ffe6cc;strokeColor=default;opacity=50;arcSize=9;" parent="1" vertex="1">
          <mxGeometry x="215" y="165" width="230" height="211" as="geometry" />
        </mxCell>
        <mxCell id="sK3tTHBo8_BVSVDVNylo-21556" value="" style="rounded=1;whiteSpace=wrap;html=1;fillColor=#d5e8d4;strokeColor=#82b366;opacity=50;arcSize=9;" parent="1" vertex="1">
          <mxGeometry x="265" y="225" width="130" height="141" as="geometry" />
        </mxCell>
        <mxCell id="sK3tTHBo8_BVSVDVNylo-21555" value="" style="rounded=1;whiteSpace=wrap;html=1;fillColor=#dae8fc;strokeColor=#6c8ebf;opacity=50;" parent="1" vertex="1">
          <mxGeometry x="270" y="284" width="120" height="71" as="geometry" />
        </mxCell>
        <mxCell id="21534" value="Entiers naturels&lt;br style=&quot;font-size: 12px;&quot;&gt;ℕ" style="text;fontSize=12;align=center;verticalAlign=middle;html=1;fontColor=default;" parent="1" vertex="1">
          <mxGeometry x="275" y="284" width="110" height="39" as="geometry" />
        </mxCell>
        <mxCell id="sK3tTHBo8_BVSVDVNylo-21540" value="Entiers relatifs&lt;br style=&quot;font-size: 12px;&quot;&gt;ℤ&lt;br style=&quot;font-size: 12px;&quot;&gt;" style="text;fontSize=12;align=center;verticalAlign=middle;html=1;fontColor=default;" parent="1" vertex="1">
          <mxGeometry x="235" y="224" width="190" height="40" as="geometry" />
        </mxCell>
        <mxCell id="sK3tTHBo8_BVSVDVNylo-21541" value="Nombres décimaux&lt;br style=&quot;font-size: 12px;&quot;&gt;D" style="text;fontSize=12;align=center;verticalAlign=middle;html=1;fontColor=default;" parent="1" vertex="1">
          <mxGeometry x="235" y="165.5" width="190" height="39.5" as="geometry" />
        </mxCell>
        <mxCell id="sK3tTHBo8_BVSVDVNylo-21544" value="Nombres rationnels&lt;br style=&quot;font-size: 12px;&quot;&gt;Q" style="text;fontSize=12;align=center;verticalAlign=middle;html=1;fontColor=default;" parent="1" vertex="1">
          <mxGeometry x="235" y="85" width="190" height="70" as="geometry" />
        </mxCell>
        <mxCell id="sK3tTHBo8_BVSVDVNylo-21545" value="Nombres Réels&amp;nbsp;&lt;br style=&quot;font-size: 12px;&quot;&gt;R" style="text;fontSize=12;align=center;verticalAlign=middle;html=1;fontColor=default;" parent="1" vertex="1">
          <mxGeometry x="455" y="100" width="100" height="40" as="geometry" />
        </mxCell>
        <mxCell id="sK3tTHBo8_BVSVDVNylo-21546" value="Nombres complexes (C)" style="text;fontSize=12;align=center;verticalAlign=middle;html=1;fontColor=default;" parent="1" vertex="1">
          <mxGeometry x="315" y="45" width="120" height="50" as="geometry" />
        </mxCell>
        <mxCell id="sK3tTHBo8_BVSVDVNylo-21547" value="0" style="text;strokeColor=none;align=center;fillColor=none;html=1;verticalAlign=middle;whiteSpace=wrap;rounded=0;" parent="1" vertex="1">
          <mxGeometry x="265" y="304" width="60" height="30" as="geometry" />
        </mxCell>
        <mxCell id="sK3tTHBo8_BVSVDVNylo-21550" value="42" style="text;strokeColor=none;align=center;fillColor=none;html=1;verticalAlign=middle;whiteSpace=wrap;rounded=0;" parent="1" vertex="1">
          <mxGeometry x="310" y="325" width="60" height="30" as="geometry" />
        </mxCell>
        <mxCell id="sK3tTHBo8_BVSVDVNylo-21551" value="109" style="text;strokeColor=none;align=center;fillColor=none;html=1;verticalAlign=middle;whiteSpace=wrap;rounded=0;" parent="1" vertex="1">
          <mxGeometry x="340" y="304" width="60" height="30" as="geometry" />
        </mxCell>
        <mxCell id="sK3tTHBo8_BVSVDVNylo-21552" value="-1" style="text;strokeColor=none;align=center;fillColor=none;html=1;verticalAlign=middle;whiteSpace=wrap;rounded=0;" parent="1" vertex="1">
          <mxGeometry x="265" y="254" width="60" height="30" as="geometry" />
        </mxCell>
        <mxCell id="sK3tTHBo8_BVSVDVNylo-21553" value="-17" style="text;strokeColor=none;align=center;fillColor=none;html=1;verticalAlign=middle;whiteSpace=wrap;rounded=0;" parent="1" vertex="1">
          <mxGeometry x="340" y="254" width="60" height="30" as="geometry" />
        </mxCell>
        <mxCell id="sK3tTHBo8_BVSVDVNylo-21557" value="-0.25" style="text;strokeColor=none;align=center;fillColor=none;html=1;verticalAlign=middle;whiteSpace=wrap;rounded=0;" parent="1" vertex="1">
          <mxGeometry x="390" y="275" width="60" height="30" as="geometry" />
        </mxCell>
        <mxCell id="sK3tTHBo8_BVSVDVNylo-21558" value="2/5" style="text;strokeColor=none;align=center;fillColor=none;html=1;verticalAlign=middle;whiteSpace=wrap;rounded=0;" parent="1" vertex="1">
          <mxGeometry x="215" y="245" width="60" height="30" as="geometry" />
        </mxCell>
        <mxCell id="sK3tTHBo8_BVSVDVNylo-21559" value="-37/20" style="text;strokeColor=none;align=center;fillColor=none;html=1;verticalAlign=middle;whiteSpace=wrap;rounded=0;" parent="1" vertex="1">
          <mxGeometry x="250" y="195" width="60" height="30" as="geometry" />
        </mxCell>
        <mxCell id="sK3tTHBo8_BVSVDVNylo-21560" value="-19.06" style="text;strokeColor=none;align=center;fillColor=none;html=1;verticalAlign=middle;whiteSpace=wrap;rounded=0;" parent="1" vertex="1">
          <mxGeometry x="355" y="195" width="60" height="30" as="geometry" />
        </mxCell>
        <mxCell id="sK3tTHBo8_BVSVDVNylo-21562" value="2/3" style="text;strokeColor=none;align=center;fillColor=none;html=1;verticalAlign=middle;whiteSpace=wrap;rounded=0;" parent="1" vertex="1">
          <mxGeometry x="370" y="125" width="60" height="30" as="geometry" />
        </mxCell>
        <mxCell id="sK3tTHBo8_BVSVDVNylo-21563" value="-17/11" style="text;strokeColor=none;align=center;fillColor=none;html=1;verticalAlign=middle;whiteSpace=wrap;rounded=0;" parent="1" vertex="1">
          <mxGeometry x="225" y="125" width="60" height="30" as="geometry" />
        </mxCell>
        <mxCell id="sK3tTHBo8_BVSVDVNylo-21567" value="π" style="text;whiteSpace=wrap;" parent="1" vertex="1">
          <mxGeometry x="475" y="149" width="20" height="30" as="geometry" />
        </mxCell>
        <mxCell id="sK3tTHBo8_BVSVDVNylo-21568" value="e" style="text;whiteSpace=wrap;" parent="1" vertex="1">
          <mxGeometry x="495" y="164" width="20" height="30" as="geometry" />
        </mxCell>
        <mxCell id="sK3tTHBo8_BVSVDVNylo-21569" value="√2" style="text;whiteSpace=wrap;" parent="1" vertex="1">
          <mxGeometry x="515" y="149" width="20" height="30" as="geometry" />
        </mxCell>
        <mxCell id="sK3tTHBo8_BVSVDVNylo-21570" value="1+i√5" style="text;whiteSpace=wrap;" parent="1" vertex="1">
          <mxGeometry x="565" y="155" width="50" height="30" as="geometry" />
        </mxCell>
        <mxCell id="sK3tTHBo8_BVSVDVNylo-21571" value="5+2i" style="text;whiteSpace=wrap;" parent="1" vertex="1">
          <mxGeometry x="565" y="100" width="40" height="30" as="geometry" />
        </mxCell>
        <mxCell id="sK3tTHBo8_BVSVDVNylo-21572" value="√2+iπ" style="text;whiteSpace=wrap;" parent="1" vertex="1">
          <mxGeometry x="565" y="195" width="40" height="30" as="geometry" />
        </mxCell>
        <mxCell id="sK3tTHBo8_BVSVDVNylo-21575" value="Quaternions (H)" style="text;fontSize=12;align=center;verticalAlign=middle;html=1;fontColor=default;" parent="1" vertex="1">
          <mxGeometry x="330" y="15" width="120" height="30" as="geometry" />
        </mxCell>
      </root>
    </mxGraphModel>
  </diagram>
</mxfile>
